# xmcd CD database file
#
# Track frame offsets:
#	150
#	4792
#	26364
#	51429
#	74858
#	101210
#	129185
#	151327
#	178461
#	204618
#	239830
#	261462
#	277749
#
# Disc length: 3991 seconds
#
# Revision: 4
# Processed by: cddbd v1.5PL3 Copyright (c) Steve Scherf et al.
# Submitted via: CDex 1.50beta10
#
DISCID=c60f950d
DTITLE=MISIA - Marvelous
DYEAR=2001
DGENRE=JPop
TTITLE0=Intro
TTITLE1=Rhythm Reflection
TTITLE2=愛の歌
TTITLE3=SUNNY DAY
TTITLE4=あの夏のままで
TTITLE5=Nocturne
TTITLE6=Escape
TTITLE7=la la la
TTITLE8=Change for good
TTITLE9=Everything
TTITLE10=時をとめて
TTITLE11=I miss you 〜時を越えて〜 
TTITLE12=Everything - Junior Vasquez Remix
EXTD=YEAR: 2001
EXTT0=
EXTT1=
EXTT2=
EXTT3=
EXTT4=
EXTT5=
EXTT6=
EXTT7=
EXTT8=
EXTT9=
EXTT10=
EXTT11=
EXTT12=
PLAYORDER=
